<svg width="487" height="348" viewBox="0 0 487 348" fill="none" xmlns="http://www.w3.org/2000/svg">
<path d="M248.928 336.516L72.2931 319.205C27.1684 314.781 -2.67898 270.306 10.3973 226.956L21.9507 167.139C30.5354 138.683 58.6352 113.458 88.3133 111.221H232.077C267.701 108.536 299.898 132.339 307.726 167.139L326.19 249.238C336.936 297.023 297.727 341.298 248.928 336.516Z" fill="url(#paint0_linear)"/>
<path d="M150.96 102.938L149.506 133.095C149.506 133.095 157.932 147.085 177.969 147.085C198.007 147.085 192.5 118.111 192.5 118.111L189.303 102.938H150.96Z" fill="#FFC8A9"/>
<path d="M151.229 97.5098L149.516 133.095C149.516 133.095 157.942 147.085 177.979 147.085C198.017 147.085 192.51 118.111 192.51 118.111L189.313 102.939L151.229 97.5098Z" fill="url(#paint1_linear)"/>
<path d="M343.629 149.918L409.04 194.82L485.287 141.905L428.7 105.842L343.629 149.918Z" fill="url(#paint2_linear)"/>
<path d="M244.227 210.162C244.227 210.162 277.052 237.744 290.029 237.744C303.006 237.744 365.868 187.93 368.527 187.93C371.186 187.93 392.379 188.775 395.546 185.613L372.341 167.835C372.341 162.317 382.499 158.529 386.961 152.842C389.002 150.237 389.54 147.522 388.266 144.47L387.827 143.426C387.827 143.426 366.893 155.248 363.547 157.704C360.699 159.792 352.233 171.315 344.256 176.297C336.269 181.278 305.675 195.556 295.357 203.192L274.373 183.645L247.464 185.255L244.227 210.162Z" fill="url(#paint3_linear)"/>
<path d="M192.499 118.111C204.779 119.026 224.797 128.104 236.28 133.771C241.946 136.575 246.757 140.85 250.183 146.16L274.363 183.664C267.621 184.559 248.28 198.032 244.227 210.162L227.864 194.979C227.864 194.979 229.717 203.411 229.717 221.348C229.717 239.285 224.159 334.09 224.159 334.09L112.299 323.133L105.009 271.877L100.975 238.31L98.9635 223.943C98.9635 223.943 72.4922 222.521 59.8342 217.172L78.9457 164.345C82.7402 153.846 90.4784 145.235 100.517 140.313C113.484 133.96 132.486 125.737 150.163 122.158C152.285 133.831 163.568 143.883 178.826 140.343C197.559 136.008 192.499 118.111 192.499 118.111Z" fill="url(#paint4_linear)"/>
<path opacity="0.45" d="M112.299 323.133L103.306 257.54L229.328 207.855L224.169 334.09" fill="url(#paint5_linear)"/>
<path d="M190.816 277.714L133.412 285.231C127.546 285.996 122.158 281.87 121.391 276.014L109.211 183.317C108.445 177.46 112.578 172.081 118.444 171.316L175.848 163.799C181.714 163.033 187.102 167.159 187.868 173.016L200.048 265.713C200.815 271.569 196.682 276.939 190.816 277.714Z" fill="url(#paint6_linear)"/>
<path d="M59.8543 217.182C59.8543 217.182 49.925 246.265 49.925 262.77C49.925 279.275 63.6985 280.021 70.2117 280.021C76.725 280.021 151.11 251.763 154.366 251.763C155.561 251.763 160.969 251.862 167.632 251.882C179.164 251.922 194.442 251.723 198.037 250.421C201.951 248.999 205.217 228.507 205.217 223.505C205.217 218.504 178.935 217.609 178.935 217.609C180.27 215.77 184.951 213.533 190.458 211.345C194.999 209.546 196.862 207.338 196.742 203.242L196.314 201.283C196.314 201.283 181.176 206.434 177.641 207.816C174.762 208.939 171.824 209.536 169.922 210.301C168.418 210.908 167.074 211.843 165.968 213.016L152.374 227.503L91.9425 240.2L98.9836 223.933C88.2178 213.612 59.8543 217.182 59.8543 217.182Z" fill="url(#paint7_linear)"/>
<path d="M148.261 86.4431L148.201 89.9032C148.799 97.5095 156.587 103.654 164.674 107.95C169.683 110.614 176.236 111.022 181.256 111.022C193.227 111.022 198.724 92.9954 198.724 72.2347C198.724 51.4741 190.677 33.0499 190.677 33.0499C190.677 33.0499 142.993 26.0005 142.993 64.3998C142.993 64.3998 140.045 62.2422 137.306 63.4154C134.557 64.5887 140.254 88.1036 143.979 88.1036C145.881 88.1036 148.261 86.4431 148.261 86.4431Z" fill="url(#paint8_linear)"/>
<path d="M188.456 22.3018C188.456 22.3018 179.832 10.957 165.072 10.957C148.56 10.957 134.866 29.6397 134.866 40.5271C134.866 51.4145 142.983 64.3999 142.983 64.3999C142.983 64.3999 145.064 36.4704 178.915 28.9635L188.456 22.3018Z" fill="url(#paint9_linear)"/>
<path d="M182.68 24.9565C181.764 27.2036 178.646 28.0686 175.698 26.8755C172.761 25.6823 171.117 22.8983 172.034 20.6413C172.95 18.3942 176.067 17.5292 179.015 18.7223C181.953 19.9155 183.596 22.7094 182.68 24.9565Z" fill="url(#paint10_linear)"/>
<path d="M147.694 87.5071C147.694 87.5071 162.562 111.012 181.246 111.012C199.929 111.012 198.714 72.2249 198.714 72.2249C193.685 72.2249 191.932 69.5901 183.277 69.5901C174.623 69.5901 167.542 74.7902 160.81 74.7902C154.077 74.7902 142.973 64.3999 142.973 64.3999L144.118 67.2933C144.118 67.2933 152.484 74.8498 158.38 77.5543C158.38 77.5543 160.541 92.5183 159.903 98.3249C159.903 98.3249 149.506 88.9488 148.261 86.4432L147.694 87.5071Z" fill="url(#paint11_linear)"/>
<path d="M142.983 64.3899C142.983 59.8758 152.344 45.5283 178.298 43.0823C195.776 41.4318 195.935 49.6645 195.935 49.6645C195.935 49.6645 211.751 41.6207 211.751 29.9975C211.741 8.96838 142.983 27.8499 142.983 64.3899Z" fill="url(#paint12_linear)"/>
<path d="M227.864 194.979C226.35 182.571 222.725 163.699 222.725 163.699C222.725 163.699 251.955 175.859 257.184 193.597C257.184 193.597 244.586 205.479 244.217 210.152L227.864 194.979Z" fill="url(#paint13_linear)"/>
<path d="M372.331 167.845C372.331 167.845 371.923 168.979 370.22 169.764C368.048 170.749 365.688 172.499 366.136 175.372C367.491 184.072 378.466 188.01 378.466 188.01C378.466 188.01 392.598 188.099 395.546 185.633L372.331 167.845Z" fill="url(#paint14_linear)"/>
<path d="M98.9835 223.943L91.9425 240.21L67.4331 245.42L79.3641 216.973C79.3641 216.973 93.2272 217.619 98.9835 223.943Z" fill="url(#paint15_linear)"/>
<path d="M153.39 191.34L150.642 191.738L148.281 201.293L150.632 200.955L152.315 193.587L156.019 200.17L158.38 199.832L153.39 191.34Z" fill="white"/>
<path d="M153.301 207.338H153.281C151.876 207.398 150.482 207.179 149.187 206.692C146.688 205.768 144.537 203.878 143.331 201.273C142.136 198.658 142.107 195.805 143.033 193.309C143.511 192.027 144.238 190.833 145.194 189.809L145.214 189.789C146.618 188.248 148.45 187.095 150.532 186.518C150.542 186.518 150.612 186.498 150.622 186.498L151.827 188.556C151.817 188.556 151.747 188.576 151.727 188.576C149.855 188.964 148.201 189.929 146.957 191.271C146.937 191.291 146.917 191.311 146.897 191.331C146.867 191.36 146.837 191.4 146.807 191.43C146.797 191.44 146.787 191.45 146.787 191.46C146.08 192.235 145.542 193.13 145.184 194.095C144.457 196.043 144.477 198.271 145.413 200.319C146.349 202.357 148.032 203.829 149.984 204.555C151.02 204.942 152.135 205.111 153.251 205.052C155.691 204.903 157.852 203.799 159.376 202.119C159.445 202.039 159.525 201.949 159.595 201.87L160.8 203.928C158.878 205.907 156.248 207.179 153.301 207.338Z" fill="white"/>
<path d="M158.459 170.57L137.276 173.344C135.772 173.543 134.398 172.489 134.199 170.987L133.751 167.567C133.552 166.066 134.607 164.694 136.111 164.495L157.294 161.721C158.798 161.522 160.172 162.576 160.371 164.077L160.82 167.497C161.019 168.999 159.963 170.381 158.459 170.57Z" fill="url(#paint16_linear)"/>
<path d="M146.817 167.776C148.929 167.776 150.641 166.066 150.641 163.958C150.641 161.849 148.929 160.14 146.817 160.14C144.705 160.14 142.993 161.849 142.993 163.958C142.993 166.066 144.705 167.776 146.817 167.776Z" fill="url(#paint17_linear)"/>
<path d="M178.935 217.619H173.388C173.388 217.619 175.918 214.547 180.001 212.976C184.084 211.405 191.713 208.581 193.207 207.488C194.7 206.394 196.712 205.141 196.732 204.197C196.742 203.252 197.927 208.164 191.513 210.908C185.1 213.642 180.409 215.551 178.935 217.619Z" fill="url(#paint18_linear)"/>
<path d="M387.817 143.436C387.19 146.796 385.089 149.948 382.151 152.653C379.382 155.208 370.688 160.319 372.331 167.835C372.331 167.835 372.54 164.862 378.067 160.328C383.585 155.804 391.93 152.026 387.817 143.436Z" fill="url(#paint19_linear)"/>
<path d="M249.585 83.9774V46.1448C249.585 44.2656 251.109 42.7444 252.991 42.7444H309.519C311.401 42.7444 312.925 44.2656 312.925 46.1448V74.472C312.925 76.3512 311.401 77.8725 309.519 77.8725H258.907C258.498 77.8725 258.12 78.0515 257.851 78.3498L252.065 84.912C251.198 85.8864 249.585 85.27 249.585 83.9774Z" fill="url(#paint20_linear)"/>
<path d="M304.908 53.3833H261.137V56.9926H304.908V53.3833Z" fill="white"/>
<path d="M290.806 62.7793H261.137V66.3886H290.806V62.7793Z" fill="white"/>
<path opacity="0.54" d="M98.9834 223.943L100.995 238.311L116.033 235.149L109.221 183.307L82.8596 217.331C82.8596 217.331 94.94 218.832 98.9834 223.943Z" fill="url(#paint21_linear)"/>
<path d="M98.9834 223.943L110.924 196.322L116.023 235.149L100.985 238.31L98.9834 223.943Z" fill="url(#paint22_linear)"/>
<defs>
<linearGradient id="paint0_linear" x1="167.641" y1="111.015" x2="167.641" y2="336.871" gradientUnits="userSpaceOnUse">
<stop stop-color="#DBF6FF"/>
<stop offset="1" stop-color="#AEECFF"/>
</linearGradient>
<linearGradient id="paint1_linear" x1="163.12" y1="136.826" x2="180.252" y2="96.7075" gradientUnits="userSpaceOnUse">
<stop offset="0.1293" stop-color="#FFC8A9"/>
<stop offset="0.2778" stop-color="#FEC3A6"/>
<stop offset="0.4505" stop-color="#FBB59C"/>
<stop offset="0.6346" stop-color="#F69E8B"/>
<stop offset="0.692" stop-color="#F49585"/>
</linearGradient>
<linearGradient id="paint2_linear" x1="384.429" y1="140.807" x2="447.756" y2="158.378" gradientUnits="userSpaceOnUse">
<stop offset="0.1979" stop-color="#F5F3F6"/>
<stop offset="1" stop-color="#EFE8EF"/>
</linearGradient>
<linearGradient id="paint3_linear" x1="303.147" y1="207.356" x2="275.988" y2="239.882" gradientUnits="userSpaceOnUse">
<stop stop-color="#FFC8A9"/>
<stop offset="0.2858" stop-color="#FFC4A6"/>
<stop offset="0.5606" stop-color="#FFB99E"/>
<stop offset="0.8299" stop-color="#FFA591"/>
<stop offset="1" stop-color="#FF9585"/>
</linearGradient>
<linearGradient id="paint4_linear" x1="107.503" y1="117.542" x2="227.757" y2="308.513" gradientUnits="userSpaceOnUse">
<stop stop-color="#39B980"/>
<stop offset="1" stop-color="#39A180"/>
</linearGradient>
<linearGradient id="paint5_linear" x1="122.893" y1="240.848" x2="253.545" y2="308.25" gradientUnits="userSpaceOnUse">
<stop offset="0.4544" stop-color="#39B980" stop-opacity="0"/>
<stop offset="0.6318" stop-color="#399880" stop-opacity="0.6386"/>
<stop offset="0.7322" stop-color="#398A80"/>
</linearGradient>
<linearGradient id="paint6_linear" x1="197.911" y1="248.83" x2="108.498" y2="198.428" gradientUnits="userSpaceOnUse">
<stop offset="0.0752" stop-color="#12498B"/>
<stop offset="1" stop-color="#396597"/>
</linearGradient>
<linearGradient id="paint7_linear" x1="116.38" y1="199.354" x2="135.941" y2="278.65" gradientUnits="userSpaceOnUse">
<stop offset="0.5787" stop-color="#FFC8A9"/>
<stop offset="0.7727" stop-color="#FFB39A"/>
<stop offset="1" stop-color="#FF9585"/>
</linearGradient>
<linearGradient id="paint8_linear" x1="160.212" y1="97.0959" x2="180.729" y2="38.9985" gradientUnits="userSpaceOnUse">
<stop stop-color="#FFC8A9"/>
<stop offset="0.264" stop-color="#FEC3A6"/>
<stop offset="0.5708" stop-color="#FAB59C"/>
<stop offset="0.8979" stop-color="#F49E8B"/>
<stop offset="1" stop-color="#F29585"/>
</linearGradient>
<linearGradient id="paint9_linear" x1="135.995" y1="15.726" x2="175.287" y2="52.1117" gradientUnits="userSpaceOnUse">
<stop offset="0.2381" stop-color="#39CF80"/>
<stop offset="0.6718" stop-color="#39A180"/>
</linearGradient>
<linearGradient id="paint10_linear" x1="171.786" y1="22.8011" x2="182.935" y2="22.8011" gradientUnits="userSpaceOnUse">
<stop offset="0.0531" stop-color="#F5FFF6"/>
<stop offset="1" stop-color="#EFE8EF"/>
</linearGradient>
<linearGradient id="paint11_linear" x1="156.752" y1="87.7079" x2="212.498" y2="87.7079" gradientUnits="userSpaceOnUse">
<stop offset="0.5707" stop-color="#F5F7FA"/>
<stop offset="0.7487" stop-color="#EFE8EF"/>
</linearGradient>
<linearGradient id="paint12_linear" x1="200.737" y1="20.7784" x2="179.207" y2="42.1078" gradientUnits="userSpaceOnUse">
<stop offset="0.0702" stop-color="#398780"/>
<stop offset="1" stop-color="#397880"/>
</linearGradient>
<linearGradient id="paint13_linear" x1="261.884" y1="146.35" x2="226.659" y2="198.424" gradientUnits="userSpaceOnUse">
<stop stop-color="#39B980"/>
<stop offset="0.2885" stop-color="#39B580"/>
<stop offset="0.5524" stop-color="#39AA80"/>
<stop offset="0.8058" stop-color="#399880"/>
<stop offset="0.9465" stop-color="#398A80"/>
</linearGradient>
<linearGradient id="paint14_linear" x1="368.247" y1="186.875" x2="385.904" y2="175.438" gradientUnits="userSpaceOnUse">
<stop stop-color="#FFC8A9"/>
<stop offset="0.33" stop-color="#FFC5A7"/>
<stop offset="0.5778" stop-color="#FFBBA0"/>
<stop offset="0.798" stop-color="#FFAB95"/>
<stop offset="1" stop-color="#FF9585"/>
</linearGradient>
<linearGradient id="paint15_linear" x1="67.4324" y1="231.202" x2="98.9797" y2="231.202" gradientUnits="userSpaceOnUse">
<stop offset="0.297" stop-color="#FFC8A9"/>
<stop offset="0.4487" stop-color="#FEC3A6"/>
<stop offset="0.6252" stop-color="#FBB59C"/>
<stop offset="0.8132" stop-color="#F69E8B"/>
<stop offset="0.8719" stop-color="#F49585"/>
</linearGradient>
<linearGradient id="paint16_linear" x1="133.976" y1="169.287" x2="160.595" y2="165.791" gradientUnits="userSpaceOnUse">
<stop offset="0.5707" stop-color="#F5F3F6"/>
<stop offset="1" stop-color="#EFE8EF"/>
</linearGradient>
<linearGradient id="paint17_linear" x1="144.507" y1="160.294" x2="148.5" y2="166.634" gradientUnits="userSpaceOnUse">
<stop offset="0.5707" stop-color="#F5F3F6"/>
<stop offset="1" stop-color="#EFE8EF"/>
</linearGradient>
<linearGradient id="paint18_linear" x1="183.853" y1="208.01" x2="187.477" y2="216.433" gradientUnits="userSpaceOnUse">
<stop offset="0.2246" stop-color="#FFC8A9"/>
<stop offset="0.3557" stop-color="#FFC4A6"/>
<stop offset="0.4818" stop-color="#FFB99E"/>
<stop offset="0.6054" stop-color="#FFA591"/>
<stop offset="0.6834" stop-color="#FF9585"/>
</linearGradient>
<linearGradient id="paint19_linear" x1="375.923" y1="151.736" x2="386.353" y2="161.586" gradientUnits="userSpaceOnUse">
<stop offset="0.2959" stop-color="#FFC8A9"/>
<stop offset="0.3798" stop-color="#FFC0A3"/>
<stop offset="0.5088" stop-color="#FFAB94"/>
<stop offset="0.6098" stop-color="#FF9585"/>
</linearGradient>
<linearGradient id="paint20_linear" x1="249.583" y1="64.0618" x2="312.928" y2="64.0618" gradientUnits="userSpaceOnUse">
<stop stop-color="#39B980"/>
<stop offset="1" stop-color="#39A180"/>
</linearGradient>
<linearGradient id="paint21_linear" x1="68.2149" y1="189.364" x2="122.978" y2="221.311" gradientUnits="userSpaceOnUse">
<stop offset="0.5119" stop-color="#39AC80"/>
<stop offset="0.6381" stop-color="#399180"/>
<stop offset="0.6615" stop-color="#398880"/>
<stop offset="0.7404" stop-color="#396D80"/>
</linearGradient>
<linearGradient id="paint22_linear" x1="127.502" y1="237.446" x2="101.977" y2="213.517" gradientUnits="userSpaceOnUse">
<stop stop-color="#39B980"/>
<stop offset="0.4498" stop-color="#39A180"/>
<stop offset="0.9465" stop-color="#398A80"/>
</linearGradient>
</defs>
</svg>
